<svg width="358" height="371" viewBox="0 0 358 371" fill="none" xmlns="http://www.w3.org/2000/svg">
<path opacity="0.05" fill-rule="evenodd" clip-rule="evenodd" d="M358 160.275H244.87C236.347 212.741 192.639 252.691 140 252.691C87.3611 252.691 43.6524 212.741 35.1301 160.275H-78C-68.8803 277.733 25.2383 370.084 140 370.084C254.762 370.084 348.88 277.733 358 160.275ZM225.58 160.275C217.319 202.68 181.565 233.691 140 233.691C98.435 233.691 62.6809 202.68 54.4198 160.275H55.1399V120.311H54.941C64.0948 79.1918 99.2556 49.3932 140 49.3932C180.744 49.3932 215.905 79.1918 225.059 120.311H222.47V160.275H225.58ZM244.436 120.311C234.952 69.0807 191.8 30.3932 140 30.3932C88.1997 30.3932 45.0474 69.0807 35.5641 120.311H-77.793C-67.543 4.04456 26.0529 -87 140 -87C253.947 -87 347.543 4.04456 357.793 120.311H244.436Z" fill="#303943"/>
</svg>
